<svg width="181" height="76" viewBox="0 0 181 76" fill="none" xmlns="http://www.w3.org/2000/svg">
<path d="M57.1667 44.4167C57.1667 57.4587 57.1667 63.9801 53.1149 68.0316C49.0635 72.0833 42.5421 72.0833 29.5 72.0833C16.4578 72.0833 9.93674 72.0833 5.88502 68.0316C1.83334 63.9801 1.83334 57.4587 1.83334 44.4167V30.5833C1.83334 17.5411 1.83334 11.0201 5.88502 6.96835C9.93674 2.91667 16.4578 2.91667 29.5 2.91667C42.5421 2.91667 49.0635 2.91667 53.1149 6.96835C57.1667 11.0201 57.1667 17.5411 57.1667 30.5833" stroke="#FFC067" stroke-width="3" stroke-linecap="round"/>
<path d="M39.875 61.7083H19.125" stroke="#FFC067" stroke-width="3" stroke-linecap="round"/>
<path d="M67.8963 7.18182H73.5852L79.5937 21.8409H79.8494L85.858 7.18182H91.5469V29H87.0724V14.799H86.8913L81.245 28.8935H78.1982L72.5518 14.7457H72.3707V29H67.8963V7.18182ZM115.397 18.0909C115.397 20.4702 114.946 22.4943 114.044 24.1634C113.149 25.8324 111.928 27.1072 110.379 27.9879C108.838 28.8615 107.105 29.2983 105.181 29.2983C103.242 29.2983 101.502 28.858 99.9604 27.9773C98.4192 27.0966 97.2012 25.8217 96.3063 24.1527C95.4114 22.4837 94.964 20.4631 94.964 18.0909C94.964 15.7116 95.4114 13.6875 96.3063 12.0185C97.2012 10.3494 98.4192 9.07812 99.9604 8.20455C101.502 7.32386 103.242 6.88352 105.181 6.88352C107.105 6.88352 108.838 7.32386 110.379 8.20455C111.928 9.07812 113.149 10.3494 114.044 12.0185C114.946 13.6875 115.397 15.7116 115.397 18.0909ZM110.72 18.0909C110.72 16.5497 110.49 15.25 110.028 14.1918C109.573 13.1335 108.931 12.331 108.1 11.7841C107.269 11.2372 106.296 10.9638 105.181 10.9638C104.066 10.9638 103.093 11.2372 102.262 11.7841C101.431 12.331 100.784 13.1335 100.323 14.1918C99.8681 15.25 99.6408 16.5497 99.6408 18.0909C99.6408 19.6321 99.8681 20.9318 100.323 21.9901C100.784 23.0483 101.431 23.8509 102.262 24.3977C103.093 24.9446 104.066 25.218 105.181 25.218C106.296 25.218 107.269 24.9446 108.1 24.3977C108.931 23.8509 109.573 23.0483 110.028 21.9901C110.49 20.9318 110.72 19.6321 110.72 18.0909ZM118.814 29V7.18182H127.55C129.155 7.18182 130.494 7.41974 131.566 7.8956C132.639 8.37145 133.445 9.03196 133.985 9.87713C134.524 10.7152 134.794 11.6811 134.794 12.7749C134.794 13.6271 134.624 14.3764 134.283 15.0227C133.942 15.6619 133.473 16.1875 132.877 16.5994C132.287 17.0043 131.613 17.2919 130.853 17.4624V17.6754C131.684 17.7109 132.461 17.9453 133.186 18.3785C133.917 18.8118 134.51 19.419 134.965 20.2003C135.419 20.9744 135.647 21.8977 135.647 22.9702C135.647 24.1278 135.359 25.1612 134.784 26.0703C134.216 26.9723 133.374 27.6861 132.259 28.2116C131.144 28.7372 129.77 29 128.136 29H118.814ZM123.427 25.2287H127.188C128.473 25.2287 129.411 24.9837 130 24.4936C130.59 23.9964 130.885 23.3359 130.885 22.5121C130.885 21.9084 130.739 21.3757 130.448 20.9141C130.157 20.4524 129.741 20.0902 129.201 19.8274C128.669 19.5646 128.033 19.4332 127.294 19.4332H123.427V25.2287ZM123.427 16.3118H126.847C127.479 16.3118 128.04 16.2017 128.53 15.9815C129.027 15.7543 129.418 15.4347 129.702 15.0227C129.993 14.6108 130.139 14.1172 130.139 13.5419C130.139 12.7536 129.858 12.1179 129.297 11.6349C128.743 11.152 127.955 10.9105 126.932 10.9105H123.427V16.3118ZM143.261 7.18182V29H138.648V7.18182H143.261ZM147.056 29V7.18182H151.669V25.1967H161.023V29H147.056ZM164.078 29V7.18182H178.78V10.9851H168.691V16.1839H178.023V19.9872H168.691V25.1967H178.822V29H164.078Z" fill="#FFB957"/>
<path d="M89.76 66.32C89.76 66.7733 88.4133 67 85.72 67C83.0267 67 81.68 66.7733 81.68 66.32V57.12H76.08V66.32C76.08 66.7733 74.7333 67 72.04 67C69.3467 67 68 66.7733 68 66.32V39.8C68 39.24 69.3467 38.96 72.04 38.96C74.7333 38.96 76.08 39.24 76.08 39.8V49.2H81.68V39.88C81.68 39.5067 82.3467 39.24 83.68 39.08C84.3733 39.0267 85.0533 39 85.72 39L87.76 39.08C89.0933 39.24 89.76 39.5067 89.76 39.88V66.32ZM106.822 39.8C106.822 39.2667 108.262 39 111.142 39C114.049 39 115.502 39.2667 115.502 39.8V58.16C115.502 60.88 114.529 63.1067 112.582 64.84C110.636 66.5467 107.942 67.4 104.502 67.4C101.089 67.4 98.3022 66.52 96.1422 64.76C94.0089 62.9733 92.9422 60.5733 92.9422 57.56V39.84C92.9422 39.3067 94.3822 39.04 97.2622 39.04C100.169 39.04 101.622 39.3067 101.622 39.84V57.88C101.622 58.4133 101.902 58.84 102.462 59.16C103.049 59.48 103.662 59.64 104.302 59.64C104.942 59.64 105.516 59.4933 106.022 59.2C106.556 58.9067 106.822 58.4667 106.822 57.88V39.8ZM138.499 46.24C138.499 49.0133 137.299 51.12 134.899 52.56C136.206 53.04 137.299 53.8667 138.179 55.04C139.059 56.2133 139.499 57.88 139.499 60.04C139.499 62.1733 138.699 63.8667 137.099 65.12C135.526 66.3733 133.259 67 130.299 67H120.859C120.406 67 120.033 66.8533 119.739 66.56C119.446 66.24 119.299 65.8267 119.299 65.32V39.72C119.299 39.4267 119.339 39.24 119.419 39.16C119.526 39.0533 119.726 39 120.019 39H129.139C135.379 39 138.499 41.4133 138.499 46.24ZM126.979 45.48V50.72H127.179C129.739 50.72 131.019 49.8667 131.019 48.16C131.019 47.2267 130.766 46.5467 130.259 46.12C129.779 45.6933 128.966 45.48 127.819 45.48H126.979ZM126.979 55.44V60.64H127.699C128.846 60.64 129.686 60.4267 130.219 60C130.753 59.5733 131.019 58.8933 131.019 57.96C131.019 57.0267 130.766 56.3733 130.259 56C129.779 55.6267 128.966 55.44 127.819 55.44H126.979Z" fill="#FFB957"/>
</svg>
